<?xml version="1.0" standalone="no"?>
<!DOCTYPE svg PUBLIC "-//W3C//DTD SVG 20010904//EN"
 "http://www.w3.org/TR/2001/REC-SVG-20010904/DTD/svg10.dtd">
<svg version="1.0" xmlns="http://www.w3.org/2000/svg"
 width="835.000000pt" height="835.000000pt" viewBox="0 0 835.000000 835.000000"
 preserveAspectRatio="xMidYMid meet">

<g transform="translate(0.000000,835.000000) scale(0.100000,-0.100000)"
fill="#000000" stroke="none">
<path d="M2695 8331 c-94 -28 -256 -94 -711 -289 -539 -231 -776 -326 -1033
-412 -298 -101 -343 -110 -611 -116 -248 -7 -260 -10 -307 -71 l-28 -36 -3
-882 -2 -881 23 -44 c36 -68 91 -92 231 -101 259 -18 392 -74 728 -306 276
-192 407 -259 593 -308 264 -68 532 -54 1345 70 435 66 442 67 818 8 l102 -16
0 -227 c0 -243 5 -276 49 -324 31 -33 391 -216 427 -216 l24 0 0 -591 c0 -430
3 -603 12 -633 17 -59 215 -257 274 -274 53 -15 374 -16 429 -1 30 8 67 37
148 118 60 58 114 115 120 126 9 14 13 193 17 635 l5 615 25 3 c46 6 422 205
444 235 29 39 33 104 31 572 -1 309 -4 406 -14 425 -7 14 -48 61 -91 105 l-79
80 10 50 c12 61 3 159 -21 229 -27 78 -816 1383 -921 1524 -42 56 -60 68 -239
172 -493 286 -1342 691 -1595 761 -84 23 -121 23 -200 0z m461 -1517 c175 -53
462 -150 609 -206 l130 -49 118 -149 c97 -123 124 -151 155 -160 156 -50 706
-369 687 -400 -3 -5 -63 -8 -138 -7 l-132 3 -85 51 c-190 114 -382 203 -530
246 -136 40 -417 67 -695 67 -121 0 -165 4 -225 21 -167 46 -289 133 -341 242
-79 168 -25 310 134 351 133 34 174 33 313 -10z m2237 -1422 l117 -117 0 -333
0 -332 -92 -47 c-87 -44 -99 -48 -193 -53 -114 -7 -147 -21 -185 -78 l-25 -36
-3 -660 -2 -660 -32 -33 c-32 -33 -32 -33 -132 -33 -99 0 -100 0 -133 32 l-33
32 0 630 c0 347 -5 649 -10 670 -21 92 -90 136 -215 136 -77 1 -84 3 -180 53
l-100 52 -1 129 c0 89 3 129 12 133 6 2 54 -3 105 -13 112 -19 238 -22 298 -5
42 12 43 12 78 -23 54 -54 97 -71 178 -71 51 1 81 6 110 22 178 94 179 353 3
444 l-38 19 0 78 c0 43 -6 101 -14 130 l-13 52 191 0 191 0 118 -118z"/>
<path d="M6331 2829 c-171 -20 -302 -61 -691 -217 -483 -193 -748 -251 -1240
-272 -135 -6 -306 -15 -380 -21 -449 -37 -670 -213 -670 -535 0 -120 22 -183
92 -259 84 -93 236 -155 456 -187 64 -10 265 -13 762 -13 598 0 688 2 790 18
187 29 362 65 572 118 168 43 200 49 220 38 32 -17 47 -39 48 -70 0 -45 -35
-77 -108 -98 -192 -57 -508 -124 -732 -157 -148 -21 -1099 -32 -1381 -15 -385
23 -590 89 -739 240 -111 113 -153 228 -148 406 l3 110 -565 193 c-638 217
-755 252 -887 259 -80 5 -103 2 -175 -20 -240 -75 -388 -269 -388 -507 1 -195
72 -343 213 -444 83 -59 156 -94 462 -224 1525 -646 2690 -1097 2994 -1158
103 -20 157 -15 329 32 175 48 363 112 959 328 281 102 547 195 590 207 109
30 308 37 424 15 149 -28 260 -71 388 -150 104 -65 198 -59 254 15 28 38 556
1566 564 1635 6 44 -18 104 -54 136 -33 30 -1034 438 -1241 507 -254 83 -506
115 -721 90z"/>
<path d="M2314 2765 c-138 -30 -260 -98 -344 -193 -27 -31 -48 -57 -47 -59 2
-1 43 -14 93 -28 83 -24 1200 -402 1215 -411 3 -2 23 24 44 57 67 109 202 221
313 260 17 6 32 14 32 18 0 14 -563 220 -785 287 -281 85 -386 99 -521 69z"/>
</g>
</svg>
