<svg xmlns="http://www.w3.org/2000/svg" viewBox="0 0 64 64" id="report-file"><g><path d="M59 55h-3V8a7.008 7.008 0 0 0-7-7H9a5.006 5.006 0 0 0-5 5v8a1 1 0 0 0 1 1h7v43a5.006 5.006 0 0 0 5 5h38a5.006 5.006 0 0 0 5-5v-2a1 1 0 0 0-1-1ZM12 13H6V6a3 3 0 0 1 6 0Zm8 43v2a3 3 0 0 1-6 0V6a4.948 4.948 0 0 0-1.026-3H49a5.006 5.006 0 0 1 5 5v47H21a1 1 0 0 0-1 1Zm38 2a3 3 0 0 1-3 3H21a4.973 4.973 0 0 0 1-3v-1h36Z"></path><path d="M27 44a1 1 0 0 0 1-1V19a1 1 0 0 0-1-1h-6a1 1 0 0 0-1 1v24a1 1 0 0 0 1 1zm-5-24h4v22h-4zm9 24h6a1 1 0 0 0 1-1V29a1 1 0 0 0-1-1h-6a1 1 0 0 0-1 1v14a1 1 0 0 0 1 1zm1-14h4v12h-4zm9 14h6a1 1 0 0 0 1-1V25a1 1 0 0 0-1-1h-6a1 1 0 0 0-1 1v18a1 1 0 0 0 1 1zm1-18h4v16h-4z"></path></g></svg>