<svg xmlns="http://www.w3.org/2000/svg" width="512" height="512" id="cinema-tickets"><path d="M237.979 521.623L143.77 521.695C140.049 521.697 136.03 522.016 132.358 521.449C115.929 518.912 102.285 505.361 100.75 488.522C99.1488 470.952 104.283 441.893 118.013 430.586C121.398 427.799 125.296 425.647 128.883 423.133C161.557 400.237 155.191 350.981 118.069 339.591C113.343 338.141 107.466 338.743 103.582 335.449C100.417 332.766 102.114 325.06 100.515 320.93C96.3897 310.27 81.6013 286.218 80.9048 278.462C79.262 260.165 93.5836 252.483 107.772 247.194L128.703 239.481L172.082 220.262L267.188 172.472L399.422 100.52C404.573 98.1168 409.188 96.8169 414.853 96.3843C440.139 94.7004 455.989 125.237 467.555 143.227L473.088 151.858C476.409 157.059 479.86 162.732 474.083 167.285C461.011 177.59 453.421 189.57 455.808 207.22L455.89 207.812C457.027 216.446 466.11 234.639 476.477 234.841L486.999 235.026C493.068 235.203 498.244 237.459 504.225 238.138C507.114 238.465 510.075 238.424 512.94 238.908C531.006 241.96 543.466 260.706 539.905 278.554C538.475 285.722 535.732 291.755 536.163 299.234C536.714 308.781 541.391 320.798 541.408 328.486C541.427 337.001 529.455 337.682 523.599 340.459C505.94 348.833 496.724 365.841 497.198 385.301C497.738 407.457 513.069 418.908 529.611 429.352C543.182 437.921 549.628 451.313 549.85 467.354C550.22 494.059 542.242 517.35 513.073 521.416C510.211 521.815 507.259 521.663 504.375 521.779L237.979 521.623ZM412.895 110.357C405.619 112.043 399.231 116.063 392.788 119.692L318.438 160.649L211.592 216.564C196.664 223.981 181.816 232.187 166.492 238.721L194.549 238.599C206.768 238.601 206.116 238.89 217.111 233.554L330.196 175.051L359.91 158.353C363.422 156.404 366.875 154.122 370.486 152.384C378.508 149.646 384.363 159.509 376.813 164.597C372.191 167.712 367.097 170.358 362.257 173.126L304.455 204.984L250.965 232.907C248.74 234.058 241.913 238.22 239.995 238.682L454.739 238.132C453.431 237.022 453.123 235.684 452.202 234.315C438.032 213.274 436.928 185.902 454.447 166.094L461.046 159.545L449.863 141.681C442.108 129.814 429.855 108.41 412.895 110.357ZM195.885 252.411L161.422 252.43C129.134 252.463 111.645 250.745 111.984 292.583C112.111 308.245 113.085 317.328 126.507 325.709L136.202 332.065C172.495 358.147 173.479 409.888 135.297 434.856C129.088 438.916 124.128 441.255 120.595 448.235C111.728 465.75 108.072 504.735 135.755 507.913C139.919 508.392 144.307 508.152 148.501 508.152L452.031 508.157L502.487 508.197C506.852 508.193 513.259 509.036 517.163 507.123C532.732 499.492 536.372 486.132 536.199 470.011C535.994 450.827 531.493 446.672 515.361 437.411C471.005 411.945 471.405 349.043 518.574 326.227L525.239 323.484C521.609 313.503 520.352 298.728 522.5 288.05C523.633 282.419 527.98 277.132 528.151 271.361C528.512 259.148 513.867 253.021 503.72 252.488L195.885 252.411ZM100.13 267.031C92.9628 273.001 93.6594 275.66 97.1313 284.349C97.338 284.852 97.5633 285.795 97.9977 286.094C98.3271 279.515 99.1124 273.604 100.7 267.202L100.13 267.031Z" transform="scale(.8)"></path><path d="M471.205 284.03L176.993 284.033C175.263 284.038 172.87 284.34 171.25 283.816 163.571 281.329 164.598 273.317 171.976 270.074L471.562 270.107C478.935 270.297 479.197 282.302 471.205 284.03zM326.688 425.153C314.464 428.661 301.413 444.75 288.478 435.882 276.378 427.587 283.55 413.465 285.75 402.268 288.399 388.78 265.051 385.608 262.794 371.691 259.39 350.704 280.593 351.86 293.551 350.25 302.887 349.089 303.161 347.246 306.993 338.702 311.198 329.323 314.141 319.555 325.809 318.242 338.931 317.303 342.947 330.514 346.935 340.404 349.335 346.355 350.408 348.063 356.787 348.959L368.917 350.284C375.515 350.921 381.741 351.323 386.276 356.804 392.276 364.056 390.934 373.051 384.867 379.411 376.177 388.52 364.81 390.835 368.089 404.675 370.75 415.909 376.614 426.2 365.766 434.915 352.957 445.206 339.576 426.524 327.081 425.19L326.688 425.153zM326.521 332.969C316.944 338.088 322.75 358.492 301.27 362.856 297.19 363.685 278.948 364.827 276.943 367.656 281.401 378.651 303.618 380.62 299.38 405.279 297.214 417.886 288.875 429.828 305.158 420.161 311.633 416.316 318.214 411.597 325.875 410.74L326.331 410.737C338.256 410.72 346.803 420.231 357.523 423.577 356.792 413.537 350.778 403.464 353.469 393.23 358.022 375.916 393.14 366.307 364.328 364.199 347.297 362.953 338.788 359.418 332.851 342.812 331.803 339.881 330.921 331.813 326.521 332.969zM472.364 489.468L174.463 489.544C164.936 489.481 162.338 478.581 172.639 475.694L473.125 475.864C480.607 476.107 482.255 487.897 472.364 489.468z" transform="scale(.8)"></path></svg>